<?xml version="1.0" standalone="no"?>
<!DOCTYPE svg PUBLIC "-//W3C//DTD SVG 20010904//EN"
 "http://www.w3.org/TR/2001/REC-SVG-20010904/DTD/svg10.dtd">
<svg version="1.0" xmlns="http://www.w3.org/2000/svg"
 width="400.000000pt" height="400.000000pt" viewBox="0 0 400.000000 400.000000"
 preserveAspectRatio="xMidYMid meet">
<metadata>
Created by potrace 1.11, written by Peter Selinger 2001-2013
</metadata>
<g transform="translate(0.000000,400.000000) scale(0.100000,-0.100000)"
fill="#000000" stroke="none">
<path d="M1668 3943 c7 -3 16 -2 19 1 4 3 -2 6 -13 5 -11 0 -14 -3 -6 -6z"/>
<path d="M2375 3926 c90 -29 265 -104 286 -122 8 -8 19 -14 23 -14 4 0 39 -24
79 -53 193 -143 285 -316 281 -527 -1 -102 -5 -126 -34 -236 -55 -210 -217
-482 -457 -768 -56 -67 -123 -143 -149 -171 -26 -27 -63 -68 -83 -89 l-36 -39
35 18 c237 120 535 398 717 670 271 406 290 752 54 1005 -36 38 -71 70 -78 70
-6 0 -13 4 -15 9 -4 12 -109 77 -177 111 -62 31 -224 91 -281 105 -8 2 -61 15
-117 29 -123 32 -142 32 -48 2z"/>
<path d="M1545 3919 c-109 -31 -305 -99 -360 -126 -84 -42 -207 -128 -263
-185 -109 -109 -161 -227 -169 -384 -13 -246 114 -531 372 -834 100 -118 346
-340 440 -397 63 -38 129 -72 133 -69 2 3 -27 38 -65 78 -76 80 -86 92 -198
223 -43 50 -87 104 -99 122 -11 17 -47 67 -78 112 -298 417 -376 799 -217
1067 43 74 149 179 238 238 61 40 218 114 336 160 55 21 14 18 -70 -5z"/>
<path d="M554 3243 c-105 -187 -148 -405 -117 -598 46 -296 232 -557 493 -698
76 -40 119 -56 255 -93 238 -65 448 -237 566 -464 44 -84 51 -54 15 71 -48
168 -115 273 -243 379 -64 54 -206 139 -283 170 -71 28 -239 104 -315 141 -50
25 -94 59 -162 126 -51 51 -93 97 -93 102 0 6 -14 34 -31 62 -34 58 -85 203
-94 265 -3 21 -8 49 -11 62 -7 33 -6 187 2 262 3 36 18 113 33 173 15 59 26
107 24 107 -1 0 -19 -30 -39 -67z"/>
<path d="M3414 3287 c72 -228 81 -479 25 -672 -12 -38 -44 -114 -72 -168 -40
-76 -68 -115 -130 -176 -89 -89 -130 -114 -376 -221 -316 -137 -456 -242 -552
-414 -38 -69 -74 -167 -84 -230 -3 -17 -8 -44 -11 -61 -8 -39 -1 -32 37 41 90
169 223 304 395 400 34 19 124 53 200 75 209 61 317 121 445 247 185 183 281
404 283 652 1 118 -5 175 -23 223 -6 15 -8 27 -6 27 7 0 -51 154 -79 207 -28
55 -61 100 -52 70z"/>
<path d="M254 2595 c9 -149 18 -210 52 -343 99 -388 355 -708 709 -885 70 -35
252 -106 290 -113 45 -8 134 -43 176 -69 148 -92 294 -335 384 -642 22 -73 41
-131 42 -129 5 5 -26 189 -47 286 -10 47 -21 96 -23 110 -8 41 -18 84 -24 100
-3 8 -7 22 -9 31 -8 39 -77 206 -116 280 -47 88 -128 174 -224 235 -62 40 -87
49 -314 121 -96 30 -202 67 -235 82 -61 28 -150 95 -217 163 -147 150 -296
417 -393 703 -26 77 -49 142 -51 145 -3 2 -3 -32 0 -75z"/>
<path d="M3723 2598 c-117 -384 -308 -705 -513 -863 -95 -73 -141 -94 -360
-159 -247 -74 -347 -127 -455 -241 -103 -110 -215 -412 -269 -730 -3 -16 -13
-72 -21 -123 -9 -52 -14 -96 -12 -98 3 -3 8 12 11 33 17 94 93 306 153 428
124 248 239 354 443 409 246 66 472 196 646 373 164 165 275 353 339 573 20
69 38 141 41 160 3 19 7 42 10 50 6 18 18 260 13 260 -2 0 -14 -33 -26 -72z"/>
<path d="M1900 2529 c-34 -16 -91 -45 -127 -65 l-65 -37 54 -29 c118 -65 165
-141 167 -273 1 -44 4 -104 6 -133 2 -29 6 -150 10 -270 4 -119 8 -248 10
-287 2 -38 7 -162 10 -275 4 -113 8 -232 10 -265 3 -51 17 -441 19 -557 2 -66
16 -41 17 30 1 37 3 78 4 92 2 14 6 88 10 165 4 77 8 156 10 175 2 19 6 89 10
155 3 66 8 143 10 170 2 28 7 91 10 140 3 50 8 115 10 145 2 30 7 93 10 140 3
47 8 105 10 130 2 25 7 79 10 120 3 41 8 91 10 110 2 19 7 64 10 100 3 36 8
76 10 90 3 14 7 41 10 60 3 19 8 43 11 52 3 9 7 27 9 40 3 13 8 37 11 53 17
77 7 153 -24 189 -27 30 -92 58 -143 62 -35 2 -61 -4 -109 -27z"/>
<path d="M185 1935 c12 -119 47 -230 115 -367 83 -167 186 -299 315 -403 28
-22 58 -47 67 -55 33 -30 174 -108 243 -136 181 -73 265 -154 398 -383 81
-139 186 -245 262 -266 17 -5 32 -9 35 -10 3 -1 24 -7 47 -13 81 -24 190 -113
251 -205 14 -20 27 -35 29 -33 15 15 -84 227 -142 307 -45 61 -140 147 -214
194 -69 44 -98 85 -194 276 -138 275 -221 354 -392 373 -40 5 -107 15 -135 21
-58 12 -163 64 -235 116 -145 106 -298 315 -429 589 l-27 55 6 -60z"/>
<path d="M3799 1943 c-32 -75 -137 -260 -195 -344 -29 -42 -88 -112 -131 -156
-139 -143 -278 -212 -460 -227 -177 -15 -263 -95 -403 -371 -105 -207 -122
-231 -210 -290 -129 -86 -232 -208 -294 -349 -26 -58 -58 -156 -51 -156 2 0
15 20 29 43 30 52 133 150 185 176 20 11 74 31 119 46 90 29 133 60 203 144
45 55 129 185 129 201 0 5 3 10 8 12 4 2 25 30 47 63 79 119 150 175 300 236
188 76 377 224 512 400 83 107 170 286 204 416 19 75 39 203 32 203 -2 0 -13
-21 -24 -47z"/>
</g>
</svg>
