<?xml version="1.0" encoding="UTF-8" standalone="no"?>
<!-- Created with Inkscape (http://www.inkscape.org/) -->

<svg
   xmlns:dc="http://purl.org/dc/elements/1.1/"
   xmlns:cc="http://creativecommons.org/ns#"
   xmlns:rdf="http://www.w3.org/1999/02/22-rdf-syntax-ns#"
   xmlns:svg="http://www.w3.org/2000/svg"
   xmlns="http://www.w3.org/2000/svg"
   xmlns:xlink="http://www.w3.org/1999/xlink"
   xmlns:sodipodi="http://sodipodi.sourceforge.net/DTD/sodipodi-0.dtd"
   xmlns:inkscape="http://www.inkscape.org/namespaces/inkscape"
   version="1.0"
   width="96"
   height="96"
   id="svg2408"
   inkscape:version="0.91 r13725"
   sodipodi:docname="configure.svg">
  <sodipodi:namedview
     pagecolor="#ffffff"
     bordercolor="#666666"
     borderopacity="1"
     objecttolerance="10"
     gridtolerance="10"
     guidetolerance="10"
     inkscape:pageopacity="0"
     inkscape:pageshadow="2"
     inkscape:window-width="866"
     inkscape:window-height="480"
     id="namedview116"
     showgrid="false"
     inkscape:zoom="2.4583333"
     inkscape:cx="48"
     inkscape:cy="48"
     inkscape:window-x="0"
     inkscape:window-y="0"
     inkscape:window-maximized="0"
     inkscape:current-layer="svg2408" />
  <defs
     id="defs2410">
    <linearGradient
       x1="45.447727"
       y1="92.539597"
       x2="45.447727"
       y2="7.0165396"
       id="ButtonShadow"
       gradientUnits="userSpaceOnUse"
       gradientTransform="scale(1.0058652,0.994169)">
      <stop
         id="stop3750"
         style="stop-color:#000000;stop-opacity:1"
         offset="0" />
      <stop
         id="stop3752"
         style="stop-color:#000000;stop-opacity:0.58823532"
         offset="1" />
    </linearGradient>
    <linearGradient
       id="linearGradient3737">
      <stop
         id="stop3739"
         style="stop-color:#ffffff;stop-opacity:1"
         offset="0" />
      <stop
         id="stop3741"
         style="stop-color:#ffffff;stop-opacity:0"
         offset="1" />
    </linearGradient>
    <filter
       color-interpolation-filters="sRGB"
       id="filter3174">
      <feGaussianBlur
         id="feGaussianBlur3176"
         stdDeviation="1.71" />
    </filter>
    <linearGradient
       x1="36.357143"
       y1="6"
       x2="36.357143"
       y2="63.893143"
       id="linearGradient3188"
       xlink:href="#linearGradient3737"
       gradientUnits="userSpaceOnUse" />
    <filter
       x="-0.192"
       y="-0.192"
       width="1.3839999"
       height="1.3839999"
       color-interpolation-filters="sRGB"
       id="filter3794">
      <feGaussianBlur
         id="feGaussianBlur3796"
         stdDeviation="5.28" />
    </filter>
    <radialGradient
       cx="48"
       cy="90.171875"
       r="42"
       fx="48"
       fy="90.171875"
       id="radialGradient3619"
       xlink:href="#linearGradient3737"
       gradientUnits="userSpaceOnUse"
       gradientTransform="matrix(1.1573129,0,0,0.99590774,-7.5510206,0.19713193)" />
    <clipPath
       id="clipPath3613">
      <rect
         width="84"
         height="84"
         rx="6"
         ry="6"
         x="6"
         y="6"
         id="rect3615"
         style="fill:#ffffff;fill-opacity:1;fill-rule:nonzero;stroke:none" />
    </clipPath>
    <linearGradient
       x1="48"
       y1="90"
       x2="48"
       y2="5.9877172"
       id="linearGradient3617"
       xlink:href="#ButtonColor-7"
       gradientUnits="userSpaceOnUse" />
    <linearGradient
       x1="10.31979"
       y1="21"
       x2="10.31979"
       y2="0.99929649"
       id="ButtonColor-7"
       gradientUnits="userSpaceOnUse">
      <stop
         id="stop3189"
         style="stop-color:#787878;stop-opacity:1"
         offset="0" />
      <stop
         id="stop3191"
         style="stop-color:#b4b4b4;stop-opacity:1"
         offset="1" />
    </linearGradient>
    <linearGradient
       x1="45.447727"
       y1="92.539597"
       x2="45.447727"
       y2="7.0165396"
       id="ButtonShadow-0"
       gradientUnits="userSpaceOnUse"
       gradientTransform="matrix(1.0058652,0,0,0.994169,100,0)">
      <stop
         id="stop3750-8"
         style="stop-color:#000000;stop-opacity:1"
         offset="0" />
      <stop
         id="stop3752-5"
         style="stop-color:#000000;stop-opacity:0.58823532"
         offset="1" />
    </linearGradient>
    <linearGradient
       x1="32.251034"
       y1="6.1317081"
       x2="32.251034"
       y2="90.238609"
       id="linearGradient3780"
       xlink:href="#ButtonShadow-0"
       gradientUnits="userSpaceOnUse"
       gradientTransform="matrix(1.0238095,0,0,1.0119048,-1.1428571,-98.071429)" />
    <linearGradient
       x1="32.251034"
       y1="6.1317081"
       x2="32.251034"
       y2="90.238609"
       id="linearGradient3772"
       xlink:href="#ButtonShadow-0"
       gradientUnits="userSpaceOnUse"
       gradientTransform="matrix(1.0238095,0,0,1.0119048,-1.1428571,-98.071429)" />
    <linearGradient
       x1="32.251034"
       y1="6.1317081"
       x2="32.251034"
       y2="90.238609"
       id="linearGradient3725"
       xlink:href="#ButtonShadow-0"
       gradientUnits="userSpaceOnUse"
       gradientTransform="matrix(1.0238095,0,0,1.0119048,-1.1428571,-98.071429)" />
    <linearGradient
       x1="32.251034"
       y1="6.1317081"
       x2="32.251034"
       y2="90.238609"
       id="linearGradient3721"
       xlink:href="#ButtonShadow-0"
       gradientUnits="userSpaceOnUse"
       gradientTransform="translate(0,-97)" />
    <linearGradient
       x1="32.251034"
       y1="6.1317081"
       x2="32.251034"
       y2="90.238609"
       id="linearGradient3059"
       xlink:href="#ButtonShadow-0"
       gradientUnits="userSpaceOnUse"
       gradientTransform="matrix(1.0238095,0,0,1.0119048,-1.1428571,-98.071429)" />
    <clipPath
       id="clipPath4403">
      <path
         d="m 30.916245,135.971 c -0.937266,0.54113 -1.228304,1.74752 -0.677924,2.7008 l 1.9375,3.35585 c -1.418086,1.4141 -2.622273,3.01198 -3.595451,4.71 l -3.783634,-0.99095 c -0.531629,-0.14245 -1.037926,-0.11751 -1.476221,0.13061 -0.438159,0.24835 -0.796545,0.66758 -0.936598,1.19027 l -1.978825,7.38507 c -0.280102,1.04538 0.365953,2.06538 1.429126,2.35032 l 3.772195,1.03363 c -0.0062,1.95711 0.237711,3.94301 0.758755,5.87671 l -3.355849,1.9375 c -0.95328,0.55037 -1.304431,1.74066 -0.763301,2.67792 l 3.8125,6.60344 c 0.54113,0.93727 1.747521,1.2283 2.700801,0.67793 l 3.355849,-1.9375 c 1.414106,1.41808 3.011983,2.62227 4.709995,3.59545 l -0.990945,3.78363 c -0.284894,1.06325 0.275431,2.13275 1.320874,2.41282 l 7.385075,1.97883 c 1.045371,0.28011 2.065425,-0.36588 2.35032,-1.42913 l 1.033633,-3.77219 c 1.957118,0.006 3.943015,-0.23771 5.876701,-0.75876 l 1.9375,3.35585 c 0.550375,0.95328 1.740658,1.30443 2.677924,0.7633 l 6.603444,-3.8125 c 0.937258,-0.54113 1.228299,-1.74752 0.677924,-2.7008 l -1.9375,-3.35585 c 1.418087,-1.4141 2.622272,-3.01197 3.595452,-4.70999 l 3.783633,0.99094 c 1.063244,0.2849 2.132709,-0.27549 2.41282,-1.32087 l 1.978825,-7.38508 c 0.280102,-1.04537 -0.365953,-2.06538 -1.429127,-2.35032 l -3.772195,-1.03363 c 0.0062,-1.95711 -0.237701,-3.94301 -0.758754,-5.8767 l 3.355848,-1.9375 c 0.953272,-0.55037 1.304431,-1.74066 0.763301,-2.67793 l -3.8125,-6.60344 c -0.54113,-0.93726 -1.747529,-1.2283 -2.700801,-0.67792 l -3.355849,1.9375 c -1.414093,-1.4181 -3.011984,-2.62228 -4.709995,-3.59546 l 0.990945,-3.78363 c 0.284894,-1.06324 -0.275422,-2.13275 -1.320874,-2.41282 l -7.385074,-1.97882 c -1.045381,-0.28011 -2.065426,0.36588 -2.35032,1.42912 l -1.033633,3.7722 c -1.95712,-0.006 -3.943015,0.2377 -5.876702,0.75875 l -1.9375,-3.35585 c -0.55038,-0.95328 -1.740666,-1.30442 -2.677924,-0.7633 l -6.603444,3.8125 z m 10.051722,9.7851 c 6.696096,-3.866 15.258361,-1.57175 19.124356,5.12435 3.865995,6.6961 1.57174,15.25836 -5.124356,19.12436 -6.696096,3.86599 -15.258361,1.57174 -19.124356,-5.12436 -3.865995,-6.6961 -1.57174,-15.25836 5.124356,-19.12435 z"
         inkscape:connector-curvature="0"
         id="path4405"
         style="fill:url(#linearGradient4407);fill-opacity:1;fill-rule:nonzero;stroke:none;stroke-width:1;marker:none;visibility:visible;display:block;overflow:visible;enable-background:accumulate" />
    </clipPath>
    <linearGradient
       x1="48.233639"
       y1="48.047016"
       x2="126.13924"
       y2="66.232674"
       id="linearGradient4213"
       xlink:href="#linearGradient4071-3"
       gradientUnits="userSpaceOnUse" />
    <linearGradient
       id="linearGradient4071-3">
      <stop
         id="stop4073-8"
         style="stop-color:#000000;stop-opacity:1"
         offset="0" />
      <stop
         id="stop4075-4"
         style="stop-color:#000000;stop-opacity:0"
         offset="1" />
    </linearGradient>
    <linearGradient
       x1="48.055065"
       y1="48.031517"
       x2="126.67282"
       y2="62.838562"
       id="linearGradient4215"
       xlink:href="#linearGradient4047-2"
       gradientUnits="userSpaceOnUse" />
    <linearGradient
       id="linearGradient4047-2">
      <stop
         id="stop4049-0"
         style="stop-color:#000000;stop-opacity:1"
         offset="0" />
      <stop
         id="stop4051-5"
         style="stop-color:#000000;stop-opacity:0"
         offset="1" />
    </linearGradient>
    <linearGradient
       x1="47.997307"
       y1="48.028725"
       x2="127.05216"
       y2="60.289631"
       id="linearGradient4217"
       xlink:href="#linearGradient4047-2"
       gradientUnits="userSpaceOnUse" />
    <linearGradient
       x1="47.99826"
       y1="48.028797"
       x2="127.41583"
       y2="57.664623"
       id="linearGradient4219"
       xlink:href="#linearGradient4047-2"
       gradientUnits="userSpaceOnUse" />
    <linearGradient
       x1="48.233643"
       y1="48.04702"
       x2="126.13924"
       y2="66.232674"
       id="linearGradient4221"
       xlink:href="#linearGradient4115-2"
       gradientUnits="userSpaceOnUse" />
    <linearGradient
       id="linearGradient4115-2">
      <stop
         id="stop4117-3"
         style="stop-color:#ffffff;stop-opacity:1"
         offset="0" />
      <stop
         id="stop4119-6"
         style="stop-color:#ffffff;stop-opacity:0"
         offset="1" />
    </linearGradient>
    <linearGradient
       x1="48.055069"
       y1="48.031521"
       x2="126.67282"
       y2="62.838566"
       id="linearGradient4223"
       xlink:href="#linearGradient4115-2"
       gradientUnits="userSpaceOnUse" />
    <linearGradient
       x1="47.997311"
       y1="48.028728"
       x2="127.05216"
       y2="60.289635"
       id="linearGradient4225"
       xlink:href="#linearGradient4115-2"
       gradientUnits="userSpaceOnUse" />
    <linearGradient
       x1="47.998264"
       y1="48.028801"
       x2="127.41583"
       y2="57.664627"
       id="linearGradient4227"
       xlink:href="#linearGradient4115-2"
       gradientUnits="userSpaceOnUse" />
    <linearGradient
       x1="48.233639"
       y1="48.047016"
       x2="126.13924"
       y2="66.232674"
       id="linearGradient4229"
       xlink:href="#linearGradient4071-3"
       gradientUnits="userSpaceOnUse" />
    <linearGradient
       x1="48.055065"
       y1="48.031517"
       x2="126.67282"
       y2="62.838562"
       id="linearGradient4231"
       xlink:href="#linearGradient4047-2"
       gradientUnits="userSpaceOnUse" />
    <linearGradient
       x1="47.997307"
       y1="48.028725"
       x2="127.05216"
       y2="60.289631"
       id="linearGradient4233"
       xlink:href="#linearGradient4047-2"
       gradientUnits="userSpaceOnUse" />
    <linearGradient
       x1="47.99826"
       y1="48.028797"
       x2="127.41583"
       y2="57.664623"
       id="linearGradient4235"
       xlink:href="#linearGradient4047-2"
       gradientUnits="userSpaceOnUse" />
    <linearGradient
       x1="48.233639"
       y1="48.047016"
       x2="126.13924"
       y2="66.232674"
       id="linearGradient4237"
       xlink:href="#linearGradient4071-3"
       gradientUnits="userSpaceOnUse" />
    <linearGradient
       x1="48.055065"
       y1="48.031517"
       x2="126.67282"
       y2="62.838562"
       id="linearGradient4239"
       xlink:href="#linearGradient4047-2"
       gradientUnits="userSpaceOnUse" />
    <linearGradient
       x1="47.997307"
       y1="48.028725"
       x2="127.05216"
       y2="60.289631"
       id="linearGradient4241"
       xlink:href="#linearGradient4047-2"
       gradientUnits="userSpaceOnUse" />
    <linearGradient
       x1="47.99826"
       y1="48.028797"
       x2="127.41583"
       y2="57.664623"
       id="linearGradient4243"
       xlink:href="#linearGradient4047-2"
       gradientUnits="userSpaceOnUse" />
    <linearGradient
       x1="48.233643"
       y1="48.04702"
       x2="126.13924"
       y2="66.232674"
       id="linearGradient4245"
       xlink:href="#linearGradient4115-2"
       gradientUnits="userSpaceOnUse" />
    <linearGradient
       x1="48.055069"
       y1="48.031521"
       x2="126.67282"
       y2="62.838566"
       id="linearGradient4247"
       xlink:href="#linearGradient4115-2"
       gradientUnits="userSpaceOnUse" />
    <linearGradient
       x1="47.997311"
       y1="48.028728"
       x2="127.05216"
       y2="60.289635"
       id="linearGradient4249"
       xlink:href="#linearGradient4115-2"
       gradientUnits="userSpaceOnUse" />
    <linearGradient
       x1="47.998264"
       y1="48.028801"
       x2="127.41583"
       y2="57.664627"
       id="linearGradient4251"
       xlink:href="#linearGradient4115-2"
       gradientUnits="userSpaceOnUse" />
    <linearGradient
       x1="20.758585"
       y1="1"
       x2="20.758585"
       y2="45.017357"
       id="linearGradient3141"
       xlink:href="#linearGradient3309"
       gradientUnits="userSpaceOnUse"
       gradientTransform="matrix(1.2790652,0,0,1.2790652,17.302433,18.5815)" />
    <linearGradient
       x1="63.9995"
       y1="3.1001"
       x2="63.9995"
       y2="122.8994"
       id="linearGradient3309"
       gradientUnits="userSpaceOnUse">
      <stop
         id="stop3311"
         style="stop-color:#f0f0f0;stop-opacity:1"
         offset="0" />
      <stop
         id="stop3313"
         style="stop-color:#aaaaaa;stop-opacity:1"
         offset="1" />
    </linearGradient>
    <linearGradient
       x1="48"
       y1="20.220806"
       x2="48"
       y2="138.66119"
       id="linearGradient3917"
       xlink:href="#linearGradient3737"
       gradientUnits="userSpaceOnUse" />
  </defs>
  <metadata
     id="metadata2413">
    <rdf:RDF>
      <cc:Work
         rdf:about="">
        <dc:format>image/svg+xml</dc:format>
        <dc:type
           rdf:resource="http://purl.org/dc/dcmitype/StillImage" />
      </cc:Work>
    </rdf:RDF>
  </metadata>
  <g
     id="layer2"
     style="display:none">
    <rect
       width="86"
       height="85"
       rx="6"
       ry="6"
       x="5"
       y="7"
       id="rect3745"
       style="opacity:0.9;fill:url(#ButtonShadow);fill-opacity:1;fill-rule:nonzero;stroke:none;filter:url(#filter3174)" />
  </g>
  <g
     id="layer3">
    <rect
       width="84"
       height="84"
       rx="6"
       ry="6"
       x="6"
       y="106"
       id="rect3774"
       style="fill:#000000;fill-opacity:1;fill-rule:nonzero;stroke:none" />
    <path
       d="m 44.1875,18.40625 c -2.812128,0 -5.03125,2.349265 -5.03125,5.09375 l 0,1.875 C 38.598195,25.583065 38.041936,25.784088 37.5,26.03125 l -1.3125,-1.3125 c -0.815424,-0.815417 -2.045979,-1.518664 -3.53125,-1.53125 -1.303265,-0.01113 -2.609586,0.484578 -3.59375,1.46875 l -5.40625,5.40625 c -1.98399,1.98401 -1.846217,5.216073 0.0625,7.125 l 1.3125,1.3125 c -0.247161,0.541936 -0.448185,1.098196 -0.65625,1.65625 l -1.875,0 c -2.744488,0 -5.09375,2.219124 -5.09375,5.03125 l 0,7.625 c 0,2.812126 2.349262,5.03125 5.09375,5.03125 l 1.875,0 c 0.208065,0.558055 0.409089,1.114314 0.65625,1.65625 l -1.3125,1.3125 c -1.908896,1.908901 -2.046661,5.141029 -0.0625,7.125 l 5.40625,5.40625 c 1.983946,1.983966 5.216043,1.846454 7.125,-0.0625 L 37.5,71.96875 c 0.541936,0.247162 1.098195,0.448185 1.65625,0.65625 l 0,1.875 c 0,2.744484 2.219121,5.09375 5.03125,5.09375 l 7.625,0 c 2.812123,0 5.03125,-2.349259 5.03125,-5.09375 l 0,-1.875 C 57.401805,72.416935 57.958064,72.215912 58.5,71.96875 l 1.3125,1.3125 c 1.908959,1.908964 5.141053,2.046443 7.125,0.0625 l 5.40625,-5.40625 c 1.983992,-1.984009 1.846223,-5.216074 -0.0625,-7.125 L 70.96875,59.5 c 0.247162,-0.541935 0.448185,-1.098194 0.65625,-1.65625 l 1.875,0 c 2.744481,0 5.09375,-2.219118 5.09375,-5.03125 l 0,-7.625 c 0,-2.812131 -2.349267,-5.03125 -5.09375,-5.03125 l -1.875,0 C 71.416935,39.598194 71.215912,39.041936 70.96875,38.5 l 1.3125,-1.3125 c 1.908886,-1.908892 2.046695,-5.141025 0.0625,-7.125 L 66.9375,24.65625 c -1.983947,-1.983938 -5.21604,-1.846464 -7.125,0.0625 L 58.5,26.03125 C 57.958064,25.784088 57.401805,25.583065 56.84375,25.375 l 0,-1.875 c 0,-2.744491 -2.219127,-5.09375 -5.03125,-5.09375 l -7.625,0 z M 48,38.09375 c 6.075308,0 10.90625,4.830942 10.90625,10.90625 0,6.075308 -4.830942,10.90625 -10.90625,10.90625 -6.075308,0 -10.90625,-4.830942 -10.90625,-10.90625 0,-6.075308 4.830942,-10.90625 10.90625,-10.90625 z"
       id="path4367"
       style="opacity:0.05;fill:#000000;fill-opacity:1;fill-rule:nonzero;stroke:none;stroke-width:1;marker:none;visibility:visible;display:block;overflow:visible;enable-background:accumulate" />
    <path
       d="m 44.1875,19.4375 c -2.226603,0 -4,1.88144 -4,4.0625 l 0,2.5625 c -1.016644,0.349685 -1.987325,0.744874 -2.9375,1.21875 l -1.8125,-1.8125 c -0.671479,-0.671474 -1.634818,-1.240285 -2.78125,-1.25 -1.022124,-0.0087 -2.053465,0.397209 -2.84375,1.1875 l -5.40625,5.40625 c -1.570335,1.570351 -1.455432,4.106901 0.0625,5.625 l 1.8125,1.8125 c -0.473875,0.950174 -0.869064,1.920858 -1.21875,2.9375 l -2.5625,0 c -2.181063,0 -4.0625,1.773399 -4.0625,4 l 0,7.625 c 0,2.226601 1.881437,4 4.0625,4 l 2.5625,0 c 0.349686,1.016643 0.744875,1.987326 1.21875,2.9375 l -1.8125,1.8125 c -1.518074,1.518078 -1.632971,4.054679 -0.0625,5.625 l 5.40625,5.40625 c 1.570306,1.570322 4.106882,1.455615 5.625,-0.0625 l 1.8125,-1.8125 c 0.950175,0.473877 1.920856,0.869066 2.9375,1.21875 l 0,2.5625 c 0,2.181059 1.773396,4.0625 4,4.0625 l 7.625,0 c 2.226598,0 4,-1.881434 4,-4.0625 l 0,-2.5625 c 1.016644,-0.349684 1.987325,-0.744873 2.9375,-1.21875 l 1.8125,1.8125 c 1.518117,1.518121 4.054691,1.632806 5.625,0.0625 l 5.40625,-5.40625 c 1.570337,-1.570351 1.455437,-4.106902 -0.0625,-5.625 L 69.71875,59.75 c 0.473875,-0.950173 0.869065,-1.920855 1.21875,-2.9375 l 2.5625,0 c 2.181056,0 4.0625,-1.773393 4.0625,-4 l 0,-7.625 c 0,-2.226606 -1.881442,-4 -4.0625,-4 l -2.5625,0 C 70.587815,40.170854 70.192626,39.200173 69.71875,38.25 l 1.8125,-1.8125 c 1.518067,-1.518072 1.632997,-4.054677 0.0625,-5.625 L 66.1875,25.40625 c -1.570309,-1.570302 -4.106883,-1.45562 -5.625,0.0625 L 58.75,27.28125 C 57.799825,26.807374 56.829144,26.412185 55.8125,26.0625 l 0,-2.5625 c 0,-2.181066 -1.773402,-4.0625 -4,-4.0625 l -7.625,0 z M 48,37.0625 c 6.630024,0 11.9375,5.307476 11.9375,11.9375 0,6.630024 -5.307476,11.9375 -11.9375,11.9375 -6.630024,0 -11.9375,-5.307476 -11.9375,-11.9375 0,-6.630024 5.307476,-11.9375 11.9375,-11.9375 z"
       id="path4363"
       style="opacity:0.07999998;fill:#000000;fill-opacity:1;fill-rule:nonzero;stroke:none;stroke-width:1;marker:none;visibility:visible;display:block;overflow:visible;enable-background:accumulate" />
    <path
       d="m 44.1875,20.46875 c -1.649639,0 -2.96875,1.39995 -2.96875,3.03125 l 0,3.21875 c -1.461857,0.450067 -2.865234,1.039291 -4.1875,1.75 l -2.3125,-2.28125 c -0.52527,-0.525266 -1.250126,-0.930616 -2.0625,-0.9375 -0.759326,-0.0065 -1.530481,0.280476 -2.125,0.875 L 25.125,31.53125 c -1.161458,1.16147 -1.074579,3.050296 0.0625,4.1875 l 2.28125,2.3125 c -0.710706,1.322265 -1.299929,2.725645 -1.75,4.1875 l -3.21875,0 c -1.631303,0 -3.03125,1.319113 -3.03125,2.96875 l 0,7.625 c 0,1.649637 1.399947,2.96875 3.03125,2.96875 l 3.21875,0 c 0.450071,1.461856 1.039294,2.865236 1.75,4.1875 l -2.28125,2.3125 c -1.137183,1.137186 -1.224059,3.026052 -0.0625,4.1875 l 5.40625,5.40625 c 1.161443,1.161455 3.050289,1.074709 4.1875,-0.0625 l 2.3125,-2.28125 c 1.322267,0.71071 2.725643,1.299933 4.1875,1.75 l 0,3.21875 c 0,1.631299 1.319111,3.03125 2.96875,3.03125 l 7.625,0 c 1.649634,0 2.96875,-1.399944 2.96875,-3.03125 l 0,-3.21875 c 1.461857,-0.450067 2.865233,-1.03929 4.1875,-1.75 l 2.3125,2.28125 c 1.137207,1.13721 3.026053,1.223945 4.1875,0.0625 L 70.875,66.46875 c 1.16146,-1.16147 1.074582,-3.050297 -0.0625,-4.1875 l -2.28125,-2.3125 c 0.710707,-1.322263 1.299931,-2.72564 1.75,-4.1875 l 3.21875,0 c 1.631297,0 3.03125,-1.319107 3.03125,-2.96875 l 0,-7.625 c 0,-1.649642 -1.399951,-2.96875 -3.03125,-2.96875 l -3.21875,0 c -0.450068,-1.461861 -1.039293,-2.865237 -1.75,-4.1875 l 2.28125,-2.3125 c 1.137179,-1.137183 1.224077,-3.026052 0.0625,-4.1875 L 65.46875,26.125 c -1.161447,-1.161442 -3.050293,-1.074709 -4.1875,0.0625 l -2.3125,2.28125 c -1.322266,-0.710709 -2.725643,-1.299933 -4.1875,-1.75 l 0,-3.21875 c 0,-1.631306 -1.319116,-3.03125 -2.96875,-3.03125 l -7.625,0 z M 48,36.03125 c 7.178426,0 12.96875,5.790324 12.96875,12.96875 0,7.178426 -5.790324,12.96875 -12.96875,12.96875 -7.178426,0 -12.96875,-5.790324 -12.96875,-12.96875 0,-7.178426 5.790324,-12.96875 12.96875,-12.96875 z"
       id="path4359"
       style="opacity:0.2;fill:#000000;fill-opacity:1;fill-rule:nonzero;stroke:none;stroke-width:1;marker:none;visibility:visible;display:block;overflow:visible;enable-background:accumulate" />
    <path
       d="m 44.1875,21.5 c -1.082262,0 -1.9375,0.899245 -1.9375,2 l 0,3.875 c -1.935147,0.515597 -3.776942,1.297312 -5.46875,2.28125 L 34,26.90625 c -0.389179,-0.389176 -0.840116,-0.620732 -1.34375,-0.625 -0.503633,-0.0043 -1.023619,0.179866 -1.40625,0.5625 L 25.84375,32.25 c -0.765262,0.76527 -0.715766,1.971648 0.0625,2.75 l 2.75,2.78125 C 27.672316,39.473053 26.89061,41.314849 26.375,43.25 l -3.875,0 c -1.100753,0 -2,0.855244 -2,1.9375 l 0,7.625 c 0,1.082256 0.899247,1.9375 2,1.9375 l 3.875,0 c 0.51561,1.935152 1.297316,3.776947 2.28125,5.46875 L 25.90625,63 c -0.778348,0.77835 -0.827844,1.984729 -0.0625,2.75 L 31.25,71.15625 c 0.765262,0.76527 1.971652,0.715847 2.75,-0.0625 l 2.78125,-2.75 c 1.691808,0.983939 3.533603,1.765652 5.46875,2.28125 l 0,3.875 c 0,1.100754 0.855238,2 1.9375,2 l 7.625,0 c 1.082252,0 1.9375,-0.899246 1.9375,-2 l 0,-3.875 c 1.935147,-0.515598 3.776941,-1.297311 5.46875,-2.28125 L 62,71.09375 c 0.778348,0.77835 1.984727,0.827772 2.75,0.0625 L 70.15625,65.75 c 0.765263,-0.76527 0.715767,-1.97165 -0.0625,-2.75 l -2.75,-2.78125 C 68.327683,58.526947 69.109401,56.685152 69.625,54.75 l 3.875,0 c 1.100744,0 2,-0.855243 2,-1.9375 l 0,-7.625 c 0,-1.082255 -0.899256,-1.9375 -2,-1.9375 l -3.875,0 C 69.109405,41.314849 68.327683,39.473053 67.34375,37.78125 L 70.09375,35 c 0.778348,-0.778351 0.827855,-1.98473 0.0625,-2.75 L 64.75,26.84375 C 63.984727,26.07848 62.778348,26.127901 62,26.90625 l -2.78125,2.75 C 57.526941,28.672312 55.685147,27.890597 53.75,27.375 l 0,-3.875 c 0,-1.100755 -0.855248,-2 -1.9375,-2 l -7.625,0 z M 48,35 c 7.731986,0 14,6.268014 14,14 0,7.731986 -6.268014,14 -14,14 -7.731986,0 -14,-6.268014 -14,-14 0,-7.731986 6.268014,-14 14,-14 z"
       inkscape:connector-curvature="0"
       id="path4353"
       style="opacity:0.3;fill:#000000;fill-opacity:1;fill-rule:nonzero;stroke:none;stroke-width:1;marker:none;visibility:visible;display:block;overflow:visible;enable-background:accumulate" />
    <path
       d="m 44.1875,20.5 c -1.082262,0 -1.9375,0.899245 -1.9375,2 l 0,3.875 c -1.935147,0.515597 -3.776942,1.297312 -5.46875,2.28125 L 34,25.90625 c -0.389179,-0.389176 -0.840116,-0.620732 -1.34375,-0.625 -0.503633,-0.0043 -1.023619,0.179866 -1.40625,0.5625 L 25.84375,31.25 c -0.765262,0.76527 -0.715766,1.971648 0.0625,2.75 l 2.75,2.78125 C 27.672316,38.473053 26.89061,40.314849 26.375,42.25 l -3.875,0 c -1.100753,0 -2,0.855244 -2,1.9375 l 0,7.625 c 0,1.082256 0.899247,1.9375 2,1.9375 l 3.875,0 c 0.51561,1.935152 1.297316,3.776947 2.28125,5.46875 L 25.90625,62 c -0.778348,0.77835 -0.827844,1.984729 -0.0625,2.75 L 31.25,70.15625 c 0.765262,0.76527 1.971652,0.715847 2.75,-0.0625 l 2.78125,-2.75 c 1.691808,0.983939 3.533603,1.765652 5.46875,2.28125 l 0,3.875 c 0,1.100754 0.855238,2 1.9375,2 l 7.625,0 c 1.082252,0 1.9375,-0.899246 1.9375,-2 l 0,-3.875 c 1.935147,-0.515598 3.776941,-1.297311 5.46875,-2.28125 L 62,70.09375 c 0.778348,0.77835 1.984727,0.827772 2.75,0.0625 L 70.15625,64.75 c 0.765263,-0.76527 0.715767,-1.97165 -0.0625,-2.75 l -2.75,-2.78125 C 68.327683,57.526947 69.109401,55.685152 69.625,53.75 l 3.875,0 c 1.100744,0 2,-0.855243 2,-1.9375 l 0,-7.625 c 0,-1.082255 -0.899256,-1.9375 -2,-1.9375 l -3.875,0 C 69.109405,40.314849 68.327683,38.473053 67.34375,36.78125 L 70.09375,34 c 0.778348,-0.778351 0.827855,-1.98473 0.0625,-2.75 L 64.75,25.84375 C 63.984727,25.07848 62.778348,25.127901 62,25.90625 l -2.78125,2.75 C 57.526941,27.672312 55.685147,26.890597 53.75,26.375 l 0,-3.875 c 0,-1.100755 -0.855248,-2 -1.9375,-2 l -7.625,0 z M 48,34 c 7.731986,0 14,6.268014 14,14 0,7.731986 -6.268014,14 -14,14 -7.731986,0 -14,-6.268014 -14,-14 0,-7.731986 6.268014,-14 14,-14 z"
       inkscape:connector-curvature="0"
       id="rect3267"
       style="fill:url(#linearGradient3141);fill-opacity:1;fill-rule:nonzero;stroke:none;stroke-width:1;marker:none;visibility:visible;display:block;overflow:visible;enable-background:accumulate" />
    <g
       transform="matrix(0.8660254,0.5,-0.5,0.8660254,85.39875,-112.71247)"
       clip-path="url(#clipPath4403)"
       id="g4176">
      <g
         transform="matrix(0.1413721,0.99271966,-1.1651755,0.12044784,96.937266,104.80532)"
         id="g4011"
         style="opacity:0.9">
        <path
           d="m 108.8959,48 a 60.895905,60.895905 0 0 1 -6.54616,27.466658 L 48,48 z"
           transform="matrix(0.99411049,-0.1083712,0.1083712,0.99411049,-5.1582185,5.4918915)"
           id="path4009"
           style="opacity:0.05;color:#000000;fill:url(#linearGradient4213);fill-opacity:1;fill-rule:nonzero;stroke:none;stroke-width:2;marker:none;visibility:visible;display:inline;overflow:visible;enable-background:accumulate" />
        <path
           d="m 108.8959,48 a 60.895905,60.895905 0 0 1 -4.45721,22.86887 L 48,48 z"
           transform="matrix(0.99786084,-0.06537382,0.06537382,0.99786084,-3.0940115,3.2415713)"
           id="path4007"
           style="opacity:0.07000002;color:#000000;fill:url(#linearGradient4215);fill-opacity:1;fill-rule:nonzero;stroke:none;stroke-width:2;marker:none;visibility:visible;display:inline;overflow:visible;enable-background:accumulate" />
        <path
           d="m 108.8959,48 a 60.895905,60.895905 0 0 1 -3.12994,19.271878 L 48,48 z"
           transform="matrix(0.99945136,-0.0331207,0.0331207,0.99945136,-1.5634586,1.6161281)"
           id="path4005"
           style="opacity:0.1;color:#000000;fill:url(#linearGradient4217);fill-opacity:1;fill-rule:nonzero;stroke:none;stroke-width:2;marker:none;visibility:visible;display:inline;overflow:visible;enable-background:accumulate" />
        <path
           d="m 108.8959,48 a 60.895905,60.895905 0 0 1 -2.07497,15.76102 L 48,48 z"
           id="path4003"
           style="opacity:0.05;color:#000000;fill:url(#linearGradient4219);fill-opacity:1;fill-rule:nonzero;stroke:none;stroke-width:2;marker:none;visibility:visible;display:inline;overflow:visible;enable-background:accumulate" />
      </g>
      <g
         transform="matrix(1.062807,-0.13087531,-0.74010065,3.227468,32.525111,9.33226)"
         id="g4027"
         style="opacity:0.9;fill:#ffffff">
        <path
           d="m 108.8959,48 a 60.895905,60.895905 0 0 1 -6.54616,27.466658 L 48,48 z"
           transform="matrix(0.99411049,-0.1083712,0.1083712,0.99411049,-5.1582185,5.4918915)"
           id="path4029"
           style="opacity:0.2;color:#000000;fill:url(#linearGradient4221);fill-opacity:1;fill-rule:nonzero;stroke:none;stroke-width:2;marker:none;visibility:visible;display:inline;overflow:visible;enable-background:accumulate" />
        <path
           d="m 108.8959,48 a 60.895905,60.895905 0 0 1 -4.45721,22.86887 L 48,48 z"
           transform="matrix(0.99786084,-0.06537382,0.06537382,0.99786084,-3.0940115,3.2415713)"
           id="path4031"
           style="opacity:0.4;color:#000000;fill:url(#linearGradient4223);fill-opacity:1;fill-rule:nonzero;stroke:none;stroke-width:2;marker:none;visibility:visible;display:inline;overflow:visible;enable-background:accumulate" />
        <path
           d="m 108.8959,48 a 60.895905,60.895905 0 0 1 -3.12994,19.271878 L 48,48 z"
           transform="matrix(0.99945136,-0.0331207,0.0331207,0.99945136,-1.5634586,1.6161281)"
           id="path4033"
           style="opacity:0.6;color:#000000;fill:url(#linearGradient4225);fill-opacity:1;fill-rule:nonzero;stroke:none;stroke-width:2;marker:none;visibility:visible;display:inline;overflow:visible;enable-background:accumulate" />
        <path
           d="m 108.8959,48 a 60.895905,60.895905 0 0 1 -2.07497,15.76102 L 48,48 z"
           id="path4035"
           style="opacity:0.8;color:#000000;fill:url(#linearGradient4227);fill-opacity:1;fill-rule:nonzero;stroke:none;stroke-width:2;marker:none;visibility:visible;display:inline;overflow:visible;enable-background:accumulate" />
      </g>
      <g
         transform="matrix(-0.61678932,0.78712829,-0.78712829,-0.61678932,115.00148,150.01193)"
         id="g4079"
         style="opacity:0.5">
        <path
           d="m 108.8959,48 a 60.895905,60.895905 0 0 1 -6.54616,27.466658 L 48,48 z"
           transform="matrix(0.99411049,-0.1083712,0.1083712,0.99411049,-5.1582185,5.4918915)"
           id="path4081"
           style="opacity:0.05;color:#000000;fill:url(#linearGradient4229);fill-opacity:1;fill-rule:nonzero;stroke:none;stroke-width:2;marker:none;visibility:visible;display:inline;overflow:visible;enable-background:accumulate" />
        <path
           d="m 108.8959,48 a 60.895905,60.895905 0 0 1 -4.45721,22.86887 L 48,48 z"
           transform="matrix(0.99786084,-0.06537382,0.06537382,0.99786084,-3.0940115,3.2415713)"
           id="path4083"
           style="opacity:0.07000002;color:#000000;fill:url(#linearGradient4231);fill-opacity:1;fill-rule:nonzero;stroke:none;stroke-width:2;marker:none;visibility:visible;display:inline;overflow:visible;enable-background:accumulate" />
        <path
           d="m 108.8959,48 a 60.895905,60.895905 0 0 1 -3.12994,19.271878 L 48,48 z"
           transform="matrix(0.99945136,-0.0331207,0.0331207,0.99945136,-1.5634586,1.6161281)"
           id="path4085"
           style="opacity:0.1;color:#000000;fill:url(#linearGradient4233);fill-opacity:1;fill-rule:nonzero;stroke:none;stroke-width:2;marker:none;visibility:visible;display:inline;overflow:visible;enable-background:accumulate" />
        <path
           d="m 108.8959,48 a 60.895905,60.895905 0 0 1 -2.07497,15.76102 L 48,48 z"
           id="path4087"
           style="opacity:0.1;color:#000000;fill:url(#linearGradient4235);fill-opacity:1;fill-rule:nonzero;stroke:none;stroke-width:2;marker:none;visibility:visible;display:inline;overflow:visible;enable-background:accumulate" />
      </g>
      <g
         transform="matrix(-0.06817198,-1.0460056,2.710673,0.60162586,-79.095447,179.08013)"
         id="g4097"
         style="opacity:0.8">
        <path
           d="m 108.8959,48 a 60.895905,60.895905 0 0 1 -6.54616,27.466658 L 48,48 z"
           transform="matrix(0.99411049,-0.1083712,0.1083712,0.99411049,-5.1582185,5.4918915)"
           id="path4099"
           style="opacity:0.05;color:#000000;fill:url(#linearGradient4237);fill-opacity:1;fill-rule:nonzero;stroke:none;stroke-width:2;marker:none;visibility:visible;display:inline;overflow:visible;enable-background:accumulate" />
        <path
           d="m 108.8959,48 a 60.895905,60.895905 0 0 1 -4.45721,22.86887 L 48,48 z"
           transform="matrix(0.99786084,-0.06537382,0.06537382,0.99786084,-3.0940115,3.2415713)"
           id="path4101"
           style="opacity:0.07000002;color:#000000;fill:url(#linearGradient4239);fill-opacity:1;fill-rule:nonzero;stroke:none;stroke-width:2;marker:none;visibility:visible;display:inline;overflow:visible;enable-background:accumulate" />
        <path
           d="m 108.8959,48 a 60.895905,60.895905 0 0 1 -3.12994,19.271878 L 48,48 z"
           transform="matrix(0.99945136,-0.0331207,0.0331207,0.99945136,-1.5634586,1.6161281)"
           id="path4103"
           style="opacity:0.1;color:#000000;fill:url(#linearGradient4241);fill-opacity:1;fill-rule:nonzero;stroke:none;stroke-width:2;marker:none;visibility:visible;display:inline;overflow:visible;enable-background:accumulate" />
        <path
           d="m 108.8959,48 a 60.895905,60.895905 0 0 1 -2.07497,15.76102 L 48,48 z"
           id="path4105"
           style="opacity:0.1;color:#000000;fill:url(#linearGradient4243);fill-opacity:1;fill-rule:nonzero;stroke:none;stroke-width:2;marker:none;visibility:visible;display:inline;overflow:visible;enable-background:accumulate" />
      </g>
      <g
         transform="matrix(-1.062807,0.1308753,0.74010064,-3.227468,62.996694,306.66774)"
         id="g4147"
         style="opacity:0.9;fill:#ffffff">
        <path
           d="m 108.8959,48 a 60.895905,60.895905 0 0 1 -6.54616,27.466658 L 48,48 z"
           transform="matrix(0.99411049,-0.1083712,0.1083712,0.99411049,-5.1582185,5.4918915)"
           id="path4149"
           style="opacity:0.2;color:#000000;fill:url(#linearGradient4245);fill-opacity:1;fill-rule:nonzero;stroke:none;stroke-width:2;marker:none;visibility:visible;display:inline;overflow:visible;enable-background:accumulate" />
        <path
           d="m 108.8959,48 a 60.895905,60.895905 0 0 1 -4.45721,22.86887 L 48,48 z"
           transform="matrix(0.99786084,-0.06537382,0.06537382,0.99786084,-3.0940115,3.2415713)"
           id="path4151"
           style="opacity:0.4;color:#000000;fill:url(#linearGradient4247);fill-opacity:1;fill-rule:nonzero;stroke:none;stroke-width:2;marker:none;visibility:visible;display:inline;overflow:visible;enable-background:accumulate" />
        <path
           d="m 108.8959,48 a 60.895905,60.895905 0 0 1 -3.12994,19.271878 L 48,48 z"
           transform="matrix(0.99945136,-0.0331207,0.0331207,0.99945136,-1.5634586,1.6161281)"
           id="path4153"
           style="opacity:0.6;color:#000000;fill:url(#linearGradient4249);fill-opacity:1;fill-rule:nonzero;stroke:none;stroke-width:2;marker:none;visibility:visible;display:inline;overflow:visible;enable-background:accumulate" />
        <path
           d="m 108.8959,48 a 60.895905,60.895905 0 0 1 -2.07497,15.76102 L 48,48 z"
           id="path4155"
           style="opacity:0.8;color:#000000;fill:url(#linearGradient4251);fill-opacity:1;fill-rule:nonzero;stroke:none;stroke-width:2;marker:none;visibility:visible;display:inline;overflow:visible;enable-background:accumulate" />
      </g>
    </g>
    <path
       d="m 44.1875,20.5 c -1.082262,0 -1.9375,0.899245 -1.9375,2 l 0,1 c 0,-1.100755 0.855238,-2 1.9375,-2 l 7.625,0 c 1.082252,0 1.9375,0.899245 1.9375,2 l 0,-1 c 0,-1.100755 -0.855248,-2 -1.9375,-2 l -7.625,0 z m -11.53125,4.78125 c -0.503633,-0.0043 -1.023619,0.179866 -1.40625,0.5625 L 25.84375,31.25 c -0.496443,0.496448 -0.634599,1.182061 -0.46875,1.8125 0.0841,-0.291632 0.234756,-0.578504 0.46875,-0.8125 L 31.25,26.84375 c 0.382631,-0.382634 0.902617,-0.5668 1.40625,-0.5625 0.503634,0.0043 0.954571,0.235824 1.34375,0.625 l 2.78125,2.75 C 38.473058,28.672312 40.314853,27.890597 42.25,27.375 l 0,-1 c -1.935147,0.515597 -3.776942,1.297312 -5.46875,2.28125 L 34,25.90625 c -0.389179,-0.389176 -0.840116,-0.620732 -1.34375,-0.625 z m 30.71875,0 c -0.494547,0.01399 -0.985826,0.235826 -1.375,0.625 l -2.78125,2.75 C 57.526941,27.672312 55.685147,26.890597 53.75,26.375 l 0,1 c 1.935147,0.515597 3.776941,1.297312 5.46875,2.28125 L 62,26.90625 c 0.778348,-0.778349 1.984727,-0.82777 2.75,-0.0625 L 70.15625,32.25 c 0.234022,0.233996 0.38464,0.520868 0.46875,0.8125 0.165867,-0.630439 0.02775,-1.316052 -0.46875,-1.8125 L 64.75,25.84375 c -0.382637,-0.382635 -0.880453,-0.57649 -1.375,-0.5625 z M 28.3125,37.4375 c -0.812756,1.508863 -1.487562,3.123824 -1.9375,4.8125 l -3.875,0 c -1.100753,0 -2,0.855244 -2,1.9375 l 0,1 c 0,-1.082256 0.899247,-1.9375 2,-1.9375 l 3.875,0 c 0.51561,-1.935151 1.297316,-3.776947 2.28125,-5.46875 L 28.3125,37.4375 z m 39.375,0 -0.34375,0.34375 c 0.983933,1.691803 1.765655,3.533599 2.28125,5.46875 l 3.875,0 c 1.100744,0 2,0.855245 2,1.9375 l 0,-1 c 0,-1.082255 -0.899256,-1.9375 -2,-1.9375 l -3.875,0 C 69.175075,40.561324 68.500258,38.946363 67.6875,37.4375 z M 34.03125,48.5 C 34.02535,48.66679 34,48.831775 34,49 c 0,7.731986 6.268014,14 14,14 7.731986,0 14,-6.268014 14,-14 0,-0.168225 -0.02537,-0.33321 -0.03125,-0.5 C 61.704161,55.999218 55.563761,62 48,62 40.436239,62 34.295839,55.999218 34.03125,48.5 z M 28.3125,59.5625 25.90625,62 C 25.365897,62.540355 25.184033,63.275367 25.375,63.9375 25.46481,63.596123 25.632834,63.273417 25.90625,63 l 2.75,-2.78125 C 28.530929,60.00327 28.431128,59.78273 28.3125,59.5625 z m 39.375,0 c -0.118628,0.22023 -0.218429,0.44077 -0.34375,0.65625 L 70.09375,63 c 0.273388,0.273417 0.441444,0.596123 0.53125,0.9375 C 70.815945,63.275367 70.634,62.540355 70.09375,62 L 67.6875,59.5625 z"
       inkscape:connector-curvature="0"
       id="path4382"
       style="opacity:0.7;fill:#ffffff;fill-opacity:1;fill-rule:nonzero;stroke:none;stroke-width:1;marker:none;visibility:visible;display:block;overflow:visible;enable-background:accumulate" />
    <path
       d="M 25.375,32.0625 C 25.184055,32.724633 25.366,33.459644 25.90625,34 l 2.40625,2.4375 c 0.118628,-0.22023 0.218429,-0.44077 0.34375,-0.65625 L 25.90625,33 C 25.632863,32.726583 25.464806,32.403877 25.375,32.0625 z m 45.25,0 C 70.53518,32.403877 70.367166,32.726583 70.09375,33 l -2.75,2.78125 c 0.125321,0.21548 0.225122,0.43602 0.34375,0.65625 L 70.09375,34 c 0.540353,-0.540355 0.722218,-1.275367 0.53125,-1.9375 z M 48,33 c -7.731986,0 -14,6.268014 -14,14 0,0.168225 0.02537,0.33321 0.03125,0.5 C 34.295839,40.000782 40.436239,34 48,34 55.563761,34 61.704161,40.000782 61.96875,47.5 61.97465,47.33321 62,47.168225 62,47 62,39.268014 55.731986,33 48,33 z m -27.5,17.8125 0,1 c 0,1.082256 0.899247,1.9375 2,1.9375 l 3.875,0 c 0.449938,1.688677 1.124744,3.303637 1.9375,4.8125 l 0.34375,-0.34375 C 27.672316,56.526947 26.89061,54.685152 26.375,52.75 l -3.875,0 c -1.100753,0 -2,-0.855244 -2,-1.9375 z m 55,0 c 0,1.082257 -0.899256,1.9375 -2,1.9375 l -3.875,0 c -0.515599,1.935152 -1.297317,3.776947 -2.28125,5.46875 l 0.34375,0.34375 c 0.812757,-1.508863 1.487571,-3.123823 1.9375,-4.8125 l 3.875,0 c 1.100744,0 2,-0.855243 2,-1.9375 l 0,-1 z m -50.125,12.125 c -0.165865,0.630439 -0.02775,1.316051 0.46875,1.8125 L 31.25,70.15625 c 0.765262,0.76527 1.971652,0.715847 2.75,-0.0625 l 2.78125,-2.75 c 1.691808,0.983939 3.533603,1.765652 5.46875,2.28125 l 0,-1 C 40.314853,68.109402 38.473058,67.327689 36.78125,66.34375 L 34,69.09375 c -0.778348,0.778347 -1.984738,0.82777 -2.75,0.0625 L 25.84375,63.75 C 25.609731,63.516004 25.45911,63.229132 25.375,62.9375 z m 45.25,0 c -0.0841,0.291632 -0.234756,0.578504 -0.46875,0.8125 L 64.75,69.15625 C 63.984727,69.921522 62.778348,69.8721 62,69.09375 l -2.78125,-2.75 C 57.526941,67.327689 55.685147,68.109402 53.75,68.625 l 0,1 c 1.935147,-0.515598 3.776941,-1.297311 5.46875,-2.28125 L 62,70.09375 c 0.778348,0.77835 1.984727,0.827772 2.75,0.0625 L 70.15625,64.75 c 0.496443,-0.496448 0.634599,-1.182061 0.46875,-1.8125 z M 42.25,72.5 l 0,1 c 0,1.100754 0.855238,2 1.9375,2 l 7.625,0 c 1.082252,0 1.9375,-0.899246 1.9375,-2 l 0,-1 c 0,1.100754 -0.855248,2 -1.9375,2 l -7.625,0 c -1.082262,0 -1.9375,-0.899246 -1.9375,-2 z"
       inkscape:connector-curvature="0"
       id="path4391"
       style="opacity:0.2;fill:#000000;fill-opacity:1;fill-rule:nonzero;stroke:none;stroke-width:1;marker:none;visibility:visible;display:block;overflow:visible;enable-background:accumulate" />
  </g>
</svg>
