<?xml version="1.0" encoding="utf-8"?>
<svg version="1.1" id="Calque_1" xmlns="http://www.w3.org/2000/svg" xmlns:xlink="http://www.w3.org/1999/xlink" x="0px" y="0px"
	 viewBox="0 0 265.2 265.5" style="enable-background:new 0 0 265.2 265.5;" xml:space="preserve">
<style type="text/css">
	.grey{fill:url(#SVGID_1_);}
	.blue{fill:url(#SVGID_2_);}
	.whitephoenicis{fill:#FFFFFF;}
</style>
<g>
	<image style="overflow:visible;opacity:0.25;" width="287" height="287" xlink:href="DB37A82CFED715E.png"  transform="matrix(1 0 0 1 -11.0079 -11.2734)"></image>
	<g>
		<linearGradient id="SVGID_1_" gradientUnits="userSpaceOnUse" x1="132.5754" y1="6.4163" x2="132.5754" y2="258.7345">
			<stop  offset="0" style="stop-color:#FFFFFF"/>
			<stop  offset="1" style="stop-color:#ECECEC"/>
		</linearGradient>
		<circle class="grey" cx="132.6" cy="132.6" r="126.2"/>
	</g>
</g>
<linearGradient id="SVGID_2_" gradientUnits="userSpaceOnUse" x1="132.5754" y1="64.1648" x2="132.5754" y2="201.7801">
	<stop  offset="0" style="stop-color:#428BCA"/>
	<stop  offset="1" style="stop-color:#116395"/>
</linearGradient>
<circle class="blue" cx="132.6" cy="132.6" r="116.9"/>
<path class="whitephoenicis" d="M43,133.6c5.7,10.5,12,23.6,21.9,30.7c9.4,6.8,21,5.2,29.6,12.6c7.9,6.8,11.9,19.4,19,27.3
	c4.1,4.6,20.7,17,16.1,24.8c-7.2-10.2-16.9-11.3-25.5-19.2c-9-8.3-12.4-18.4-23.1-25.4c-18.4-12-38.7-25-38.7-50.5
	C42.6,133.8,42.8,133.7,43,133.6z M134.3,228.5c5-11.3,11.2-16.5,18.6-25.4c6.2-7.4,9.5-18.6,16.5-25.2c8.9-8.4,20.8-6.8,30.8-13.9
	c10.9-7.7,14.3-20.3,22.2-30.3c2.7,25-22.1,39.8-39.1,50.9c-12,7.9-15.5,20.3-26.3,29.1c-7.6,6.2-15.1,6.9-21.7,15.2
	C134.9,228.8,134.6,228.6,134.3,228.5z M46.4,99.6c9.3,27.3,19.4,43,45.9,54.2c25,10.6,35.2,31.9,35.5,59.3
	c-3.5-12.1-7.2-27.5-17.1-36.4c-8.6-7.8-21.1-8.8-31-14.6c-23.1-13.5-32.8-36.7-34.2-62.5C45.9,99.6,46.2,99.6,46.4,99.6z
	 M219.2,99.6c-1.4,26.6-11.9,50.8-36.5,63.7c-11.6,6.1-23.7,7-32.5,17.7c-7,8.6-6.7,24.6-13.8,31.9c4.3-28.9,8.8-48.8,36.9-59.6
	c26.4-10.2,36.2-27.3,45-53.9C218.7,99.6,218.9,99.6,219.2,99.6z M146.8,35.8c25.5,4.9,54.2,18.4,46.1,49.1
	c-5.8,21.7-26.4,41.7-45.5,52c-0.2-0.2-0.3-0.4-0.5-0.6c28.7-33.3,60.6-81.2-0.2-99.8C146.8,36.2,146.8,36,146.8,35.8z M117.5,136.7
	c-20.1-9.5-43.7-34-46.8-56.9c-2.1-15,4.7-26.1,17.2-33.9c3.4-2.1,26.4-13.5,30.3-9.6c-60,18.7-30.4,66.3-0.3,99.8
	C117.8,136.3,117.7,136.5,117.5,136.7z M118.3,79c29.8-12.5,22.1,9.5,19.6,32.5c-2.9,26.2-1.7,53.2-5.6,79.3
	c-5.8-20-1.9-48.2-2.7-69.3c-0.4-8.8,2-23.8-1.6-31.9C125.8,84.7,120.2,83.2,118.3,79z M142.4,165.8c7.3-29.9,27.6-27.5,47.9-44.4
	c9.3-7.7,13.7-17.8,14.6-29.7c0.5-6.9-4.5-17.7-2.7-23.8c13.8,16.1,9.4,43.1-4.1,57.8c-17,18.5-41.9,15.5-54.7,40.3
	C143,165.9,142.7,165.8,142.4,165.8z M63.1,68.1c-5.8,23-3.2,44.6,18.1,57.6c16,9.7,42.8,16.3,40.9,40.9
	c-13.1-21.4-28.1-21.1-47-33.7c-21.7-14.6-26-43.3-12.7-64.9C62.6,68,62.9,68.1,63.1,68.1z"/>
</svg>
